<svg width="392" height="81" viewBox="0 0 392 81" fill="none" xmlns="http://www.w3.org/2000/svg">
<g clip-path="url(#clip0)">
<path d="M72.3198 14.5348C73.9278 16.4486 76.7397 17.5761 78.3852 19.4941C77.2063 13.8233 72.8238 9.19261 67.6415 8.0859C70.1702 9.98727 70.7159 12.6292 72.3198 14.5348ZM10.0321 28.9094C13.6023 21.15 18.9304 22.7934 21.1841 15.4001C19.9343 17.6676 14.1022 18.6246 11.3902 24.4369C12.7691 20.9836 12.0776 15.6997 14.4104 12.8497C7.43682 17.988 10.4071 26.3008 10.0321 28.9094ZM16.4975 47.5196C17.1391 50.5401 15.2478 54.9004 18.2472 59.0693C15.1478 55.5994 8.58242 54.7173 5.90795 49.4418C9.24063 62.3395 17.9889 59.6767 21.9006 62.4767C18.6679 57.8377 21.3132 54.7548 16.4975 47.5196ZM15.4936 55.6118C13.5814 48.4099 16.9891 45.9136 14.3854 39.0071C14.1147 42.9014 11.5152 44.7986 13.269 51.9048C10.1738 45.8886 5.38722 43.6419 4 39.5064C4.09581 50.8147 13.194 52.4914 15.4936 55.6118ZM29.4658 67.6774C26.7871 63.9745 28.6326 61.8818 21.0924 55.1583C22.6838 57.6131 21.0425 60.7002 26.1164 65.5015C21.1508 62.5891 14.3021 63.8372 10.9986 59.9222C16.6725 70.7687 26.6413 66.3419 29.4658 67.6899V67.6774ZM65.8836 65.5015C70.9576 60.7002 69.3162 57.5964 70.9076 55.1583C63.3841 61.8818 65.2129 63.9745 62.5342 67.6774C65.3587 66.3294 75.3275 70.7562 80.9972 59.9222C77.6979 63.8414 70.8492 62.5891 65.8836 65.514V65.5015ZM73.7528 59.0568C76.7397 54.8962 74.8609 50.5277 75.5025 47.5071C70.6868 54.7423 73.3321 57.8253 70.0869 62.4851C74.0194 59.685 82.7344 62.3395 86.0796 49.4501C83.4092 54.7173 76.8522 55.5994 73.7528 59.0693V59.0568ZM61.7302 68.1892C59.0431 67.4668 56.2833 67.0481 53.5027 66.941C50.9445 66.8797 48.3984 67.312 46.0042 68.2141C43.6098 67.3123 41.0639 66.88 38.5057 66.941C35.725 67.0481 32.9652 67.4668 30.2781 68.1892C25.7499 69.3916 21.8381 70.3235 18.4263 68.6052C21.6965 71.5176 25.5082 72.5369 31.0196 71.9337C35.6021 71.4427 39.3138 69.1503 43.638 69.1835H43.8088C41.0898 70.5429 38.6662 72.4247 36.6768 74.7212L38.7598 75C38.7598 75 40.9552 70.594 46.0042 69.4457C51.0532 70.594 53.2486 75 53.2486 75L55.3315 74.7212C53.3382 72.4365 50.915 70.5649 48.1996 69.2127H48.3704C52.6945 69.1794 56.3979 71.4719 60.9845 71.9628C66.4959 72.5578 70.3118 71.5218 73.582 68.6344C70.1702 70.336 66.2585 69.4041 61.7302 68.2017V68.1892ZM14.6937 31.1977C12.8274 34.7758 9.92799 35.5954 10.2488 43.0012C8.67407 36.4192 4.93315 33.9812 4.97897 29.7832C2.37949 40.7254 9.32811 42.0235 11.1111 46.6084C10.8486 40.0389 15.0478 38.7117 14.6937 31.1977ZM17.3015 22.7518C16.6517 23.6588 16.1976 24.0458 14.4646 25.4728C11.8622 27.5335 10.0737 30.4472 9.41559 33.6982C9.59472 29.6875 7.11188 23.9251 8.76156 19.723C2.37532 28.7305 9.12815 34.1268 9.3656 37.3886C11.0236 31.1104 14.8312 31.0604 17.3015 22.7518ZM82.5802 33.6982C81.9215 30.4484 80.1349 27.5354 77.5354 25.4728C75.8024 24.0458 75.3484 23.6588 74.6985 22.7518C77.1688 31.0729 80.9764 31.1104 82.6136 37.3886C82.851 34.1268 89.6038 28.7305 83.2134 19.723C84.8798 23.9251 82.4011 29.6875 82.5802 33.6982ZM87.9958 39.523C86.6086 43.6586 81.8221 45.9053 78.7268 51.9381C80.4807 44.8152 77.8937 42.918 77.6104 39.0404C75.0067 45.9552 78.4436 48.4391 76.5023 55.6451C78.806 52.4914 87.9042 50.8147 88 39.5064L87.9958 39.523ZM77.3188 31.1977C76.9647 38.7117 81.168 40.0389 80.9014 46.5918C82.6886 42.0152 89.6497 40.7088 87.0335 29.7665C87.0835 33.9645 83.3426 36.4234 81.7804 42.9638C82.072 35.5954 79.1726 34.7758 77.3188 31.1977ZM19.6886 14.5556C21.3007 12.6417 21.8465 10.0081 24.371 8.10671C19.1887 9.21341 14.7895 13.8441 13.6273 19.5149C15.2478 17.5761 18.0639 16.4486 19.6719 14.5348L19.6886 14.5556ZM70.8326 15.4209C73.0863 22.8142 78.4144 21.1708 81.9804 28.9302C81.6096 26.3216 84.5798 18.0088 77.6062 12.8705C79.9391 15.7247 79.2476 21.0044 80.6265 24.4577C77.9062 18.6246 72.0865 17.6676 70.8159 15.4001L70.8326 15.4209ZM52.7403 19.5981C51.3739 19.0383 49.942 18.6539 48.4787 18.454C48.4787 18.766 48.4787 19.0864 48.4787 19.4026C49.8229 19.5996 51.138 19.9601 52.3946 20.476C52.5646 20.208 52.682 19.9101 52.7403 19.5981ZM51.6614 10.4449L51.9447 10.1911L51.4031 9.96231L49.9784 9.93319L49.6076 10.1911L48.7745 10.1204V10.3243C49.2655 10.3507 49.755 10.4021 50.2408 10.4782L50.9365 10.4158L51.6614 10.4449ZM48.8994 41.129C48.8994 40.8877 48.5787 40.6505 48.1038 40.4258H48.0163C48.0163 40.6214 48.0163 41.5866 47.9871 42.0568C48.5745 41.7947 48.8994 41.5117 48.8994 41.129ZM32.3944 23.0306C32.4244 22.855 32.4647 22.6814 32.5152 22.5105C32.3239 22.5535 32.128 22.5731 31.932 22.5688L32.3944 23.0306ZM46.0292 64.8857C53.4616 64.8589 60.6014 61.989 65.9801 56.866C71.3589 51.7431 74.5679 44.7566 74.9473 37.3432C75.3266 29.9298 72.8474 22.653 68.0195 17.0091C63.1917 11.3653 56.3821 7.78337 48.9911 7C48.9911 7.05409 48.9911 7.11233 48.9577 7.16642C48.8994 7.44934 48.8453 7.70313 48.8036 7.9278C55.1842 8.55402 61.1575 11.3438 65.7294 15.8328L62.5217 19.0365L62.6425 18.4706L62.2259 18.2876L61.6511 18.2543L61.7719 17.884L61.3844 16.5734L60.5846 15.6955L58.0851 14.3767L57.8685 14.6055L57.4144 14.7386C58.2686 15.9762 58.7302 17.4418 58.7391 18.9449C58.7391 19.1405 58.7391 19.3277 58.7391 19.5149L59.9889 21.0751L59.4057 21.2083L59.7931 21.7907L58.6975 22.8808L58.2559 22.0487C58.0466 22.6259 57.7668 23.1751 57.4227 23.6838L57.6685 23.9085L54.29 27.2827C54.0859 27.0871 53.8734 26.8999 53.6568 26.721C53.3319 26.8708 53.0028 27.0081 52.6653 27.1371L52.9528 27.3617L52.782 27.5323L52.3654 27.7528L52.2196 28.1689L51.9738 27.9234L51.2615 28.1605L51.4572 28.4726L51.9488 28.3436L52.2696 28.3686L52.2946 28.1938L52.5404 28.069L52.6154 27.9234L53.0569 27.7986H53.4027C53.4693 27.8568 53.5402 27.9192 53.6027 27.9816L52.2446 29.2714L52.1446 29.13L50.7449 29.3588L50.4325 29.6708L50.1283 29.7083L50.9948 28.8762L50.6866 28.7222L49.8742 29.804L50.1117 29.779V30.1951L50.4075 30.3116L50.4658 30.7276L49.9784 30.6319L49.4701 30.7234L48.2204 30.0952C48.2204 30.0952 48.1537 33.3904 48.1204 35.0463C51.0365 36.0198 54.0984 37.4261 54.0984 41.1207C54.1096 41.8939 53.9245 42.6574 53.5602 43.3399C53.196 44.0224 52.6645 44.6015 52.0155 45.0233L51.953 45.0649L51.8613 45.1273C50.6866 45.9011 49.1785 46.3172 47.8705 46.7249L47.833 49.3128C49.9159 50.3446 52.4362 51.8465 52.2029 56.1444C52.1738 57.2012 51.7614 57.4924 51.4073 57.5881C50.1771 57.8945 48.9227 58.0936 47.658 58.1831C47.658 58.5159 47.658 58.8321 47.658 59.1275C53.0871 58.7545 58.2138 56.4933 62.1468 52.7369L65.5211 56.1069C60.305 61.1273 53.3474 63.9388 46.1034 63.9536C38.8594 63.9683 31.8903 61.185 26.6538 56.186L30.0282 52.816C33.92 56.4985 38.9662 58.7252 44.3128 59.1192C44.3128 58.8279 44.3128 58.5117 44.3128 58.1747C39.2129 57.7867 34.4011 55.6614 30.6822 52.1544L31.582 51.2516L32.8318 51.393L33.49 50.6858L35.2146 50.744L35.4688 50.149L35.4063 49.8953C37.9568 51.848 40.9965 53.0615 44.192 53.4026C44.192 53.0365 44.192 52.7161 44.192 52.454C40.6539 52.0578 37.3363 50.5382 34.7272 48.1187L38.1057 44.7445C38.9293 45.4787 39.8503 46.0961 40.8427 46.5793C40.9117 46.2685 41.0268 45.9698 41.1843 45.6931C40.3117 45.2633 39.5005 44.719 38.7723 44.0746L42.1591 40.6963C42.7012 41.1294 43.3124 41.4684 43.9671 41.699C43.9671 41.3661 43.9671 41.0125 43.9671 40.6838C43.5687 40.5108 43.1936 40.2885 42.8506 40.0223L43.8046 39.0695C43.4713 38.9697 43.1297 38.8615 42.7965 38.745L42.1549 39.3857C41.8303 39.0248 41.5582 38.6201 41.3468 38.1833C40.7678 37.9327 40.2104 37.6349 39.6804 37.2929C38.6947 36.6999 37.8832 35.8574 37.328 34.8507C36.7728 33.844 36.4936 32.7088 36.5185 31.5597C36.4616 29.9905 36.9438 28.449 37.8849 27.1911L34.5189 23.8294C36.995 21.4607 40.1437 19.9145 43.5338 19.4026C43.5338 19.0781 43.5338 18.7577 43.513 18.454C39.8782 18.9797 36.4998 20.6297 33.8524 23.1721L33.2817 22.6145C33.1525 22.8434 33.0026 23.1304 32.8276 23.4924L33.1859 23.8544C30.187 27.0333 28.4845 31.2159 28.4118 35.583H23.6336C23.7101 29.9422 25.9235 24.5398 29.8282 20.4635L31.3446 21.9821C31.4167 21.9862 31.489 21.9862 31.5612 21.9821C31.8623 21.9565 32.1554 21.8717 32.4235 21.7325L30.4947 19.8062C31.5198 18.8189 32.6356 17.9302 33.8274 17.1517C33.8927 16.9143 33.972 16.6809 34.0649 16.4528C34.2899 16.1139 34.5333 15.7875 34.7939 15.475C32.9838 16.4691 31.314 17.6989 29.8282 19.1322L26.4539 15.7621C30.9773 11.3445 36.8656 8.58743 43.1589 7.94028C43.1339 7.82379 43.1172 7.73226 43.1172 7.73226C43.0756 7.51175 43.0256 7.26627 42.9798 7.00832C35.5819 7.79277 28.7668 11.3805 23.938 17.0326C19.1092 22.6848 16.6344 29.971 17.023 37.3908C17.4117 44.8107 20.6344 51.7992 26.0274 56.9173C31.4204 62.0353 38.5731 64.8932 46.0125 64.9023L46.0292 64.8857ZM52.3237 44.8527V44.8277V44.8527ZM66.396 16.511C71.3185 21.6512 74.0965 28.4706 74.1652 35.583H69.3704C69.3278 32.0418 68.4727 28.5575 66.8709 25.3979L66.9125 25.3147L67.2416 25.4895L67.3208 25.2357L66.4876 23.742L65.4753 22.3441L64.2755 21.3664C63.859 20.8588 63.4424 20.3678 62.9966 19.8935L66.396 16.511ZM60.293 22.6145L61.4386 22.6645L61.7135 22.9931L61.5761 23.4799L63.1549 24.4785L63.4674 24.441L65.5086 26.7709L66.3418 26.4797C67.674 29.3325 68.384 32.4354 68.4247 35.583H63.6507C63.6302 34.3613 63.4808 33.1453 63.2049 31.955L63.4257 31.6596L63.7215 30.1659L63.4965 28.56L62.9216 26.7127L61.5886 24.7655L61.9135 24.9361L62.076 24.7739L61.0054 24.0499L60.9345 24.2871L62.0052 25.814L62.6092 27.0622L63.0258 28.3103L63.1633 29.1424L63.3841 30.5487L62.9675 30.5778C62.9675 30.5778 62.5051 29.7166 62.3634 29.3629L62.5759 29.0426L62.1593 28.4601V27.8776L61.8677 27.5115L61.5053 27.5573C61.3761 27.316 61.2386 27.0788 61.0887 26.8458L61.347 26.9748L61.4136 26.9082L61.2761 26.6087L61.5886 26.4339L61.4469 26.2592L60.9845 26.4339L61.1553 25.71L60.8804 25.5519L60.6346 26.1302C60.1147 25.3505 59.5339 24.6132 58.8974 23.9251L60.293 22.6145ZM59.3349 33.7939L60.193 33.3279L61.0678 33.1948L61.2595 32.7788L61.7469 32.4875L61.9343 32.0715L62.0843 31.3683C62.1551 31.6138 62.2176 31.8676 62.2759 32.1214L61.8135 33.4985V33.9645L62.4842 33.07C62.6282 33.8947 62.7076 34.7293 62.7217 35.5663H58.5558L58.46 35.2044L58.9474 34.8174L59.0432 34.5844L59.2557 34.4263L59.8223 34.3681L59.8806 34.1185L59.3349 33.7939ZM53.6027 30.5196L54.0192 30.4197V30.3199L53.6027 30.0328L53.7485 29.1341L54.2609 28.6224C54.5811 28.9871 54.8775 29.3721 55.1482 29.7748L54.9691 30.3282L54.5025 29.9953L54.1484 30.091L54.3233 30.4197H54.4983L54.3025 30.9065L54.1692 30.711L53.6027 30.5196ZM55.4315 46.3588L54.3983 46.0675L54.0901 46.1799L53.5068 45.7347L52.957 45.5392C53.2277 45.3436 53.4902 45.1231 53.7443 44.9234L54.5775 45.5225L55.2273 45.8637L55.5481 46.184L55.4315 46.3588ZM54.9066 27.9608L58.2851 24.5866C59.0749 25.4467 59.773 26.3865 60.368 27.3908L59.9514 27.5073L59.9722 28.2604L61.222 29.0592C61.5351 29.7501 61.7996 30.4618 62.0135 31.1894L61.7927 31.5139L61.3345 31.8052L61.222 32.5042L60.9095 32.6789L60.6471 32.9868L60.3846 32.8911H59.9181L60.1889 32.525L60.3846 31.5722L60.6929 31.3808L59.8223 30.4863L59.1432 30.7151L58.9891 31.3517L58.5725 31.8135L58.1268 31.4474L57.9685 31.0563L58.2226 30.8982L58.3642 31.1561L58.5725 31.0771L58.4809 30.661H58.1851L58.1643 30.8358L57.9685 30.8732L56.9062 29.6292L56.5479 29.3588L56.6854 29.209L57.002 29.1008L56.7104 28.9843C56.7104 28.9843 56.3396 29.0675 56.2938 29.0675L56.5062 29.3338H55.973C55.6526 28.85 55.2961 28.3911 54.9066 27.9608ZM56.6271 45.9136L56.1688 45.4559L56.5187 45.0024L56.9603 44.1038L56.7895 43.8541L57.0811 43.1884L57.0478 42.5893L56.8728 41.9694L56.4563 41.8238L56.3021 42.1733L56.0522 42.1067C56.4366 41.5564 56.7712 40.973 57.052 40.3634L57.4686 40.1804L57.7102 39.8559L57.8268 39.989L58.1184 39.6395L57.8851 39.3483L58.0976 39.29L58.4892 39.4481H59.2265L59.6723 39.2151L60.8387 38.9072L60.6179 38.5203L60.5429 38.0502L61.1678 38.3248L61.4011 38.1875L61.2845 37.7048L60.5304 38.0086L59.6973 37.8338L59.0557 36.5232H62.7092C62.552 40.5816 60.9114 44.4418 58.0976 47.374L57.5977 46.8705L57.8143 46.2007L57.4227 44.7237L56.6271 45.9136ZM57.2728 55.2207L57.7227 54.2555L57.5477 53.8395L58.2101 53.257V52.9075L57.6435 52.5538L58.1101 51.626L58.81 50.7107L58.1101 49.9577H57.5852L57.2603 49.4293C57.5394 49.1963 57.8185 48.9591 58.0934 48.7095L61.4719 52.0837C60.1987 53.2897 58.7896 54.3438 57.2728 55.2249V55.2207ZM61.4886 50.769L61.8635 50.3529L61.5094 48.5056L61.2678 48.4099L61.4178 48.0979L60.6179 47.8483L60.4638 48.5056L60.3846 49.3377L60.218 49.4917L58.76 48.0355C61.7507 44.9283 63.4916 40.8303 63.6507 36.5232H68.4289C68.271 42.0967 66.0265 47.4085 62.1385 51.4097L61.4886 50.769ZM62.805 52.0795C66.8697 47.9014 69.2144 42.3507 69.3745 36.5274H74.1486C73.9894 43.616 71.1428 50.3801 66.1835 55.4537L62.805 52.0795ZM34.0607 47.4572C33.7149 47.0994 33.3858 46.7291 33.0692 46.3421L33.215 45.1356L32.711 43.979L32.586 42.1691L32.0194 41.0707L32.1361 40.3884L31.4529 39.0778L30.8572 38.7783L31.0988 38.0835L30.853 37.5343L31.0988 36.906H31.7528L31.9819 36.5274H33.0984L33.2692 36.8561L33.0609 38.0086L32.9276 38.2041L33.3442 39.1153L33.0692 39.265L32.8776 39.0237L32.7943 39.1153L32.9859 39.6561L33.315 40.2885H33.4692L33.5775 39.6728L33.4192 39.4648V39.082L33.3692 38.2915L33.5775 36.9019L33.3525 36.5274H34.1523C34.3069 39.3589 35.4731 42.0412 37.4392 44.0871L34.0607 47.4572ZM30.8947 38.1334L30.4448 38.8407H29.6699L29.6074 38.7949C29.476 38.0453 29.3953 37.2878 29.3658 36.5274H30.803L30.4573 37.6757L30.8947 38.1334ZM32.4652 34.859L32.5527 33.9104L33.1192 33.5817L34.1315 33.7606L34.2857 33.9437C34.1942 34.4856 34.1427 35.0335 34.1315 35.583H32.9859L32.4652 34.859ZM37.3267 38.4246L37.5642 38.304L38.1599 38.7741L37.8891 38.9946L38.5931 39.4606L38.5765 38.9613L38.9514 38.3414L39.343 38.7575L39.7596 39.3316L38.9931 39.4897L39.3222 40.1471L39.8262 39.8808L39.7762 39.6728L40.1512 39.419L40.3719 38.3789C40.645 38.9889 41.015 39.5509 41.4676 40.0431L38.0932 43.4131C36.4386 41.6835 35.3993 39.4584 35.1355 37.0808L35.827 37.8172H36.4769L37.3267 38.4246ZM33.8524 24.5034L37.2267 27.8776C36.5197 28.6543 35.9174 29.5202 35.4354 30.453H35.2021L34.7272 30.5986H34.5606L34.0565 31.0688L34.6939 30.9356L35.2688 30.79L35.1688 31.0105L34.6647 31.3184H34.4106L33.6691 31.8842L32.9526 31.826L31.9153 33.7565L32.1194 34.1434L31.557 34.7675L31.4696 35.5996H29.3533C29.4198 31.4709 31.0238 27.515 33.8524 24.5034ZM29.4908 49.9452L30.5614 50.5734L30.7822 50.7232L30.0073 51.4971C29.6463 51.1226 29.2964 50.7357 28.9575 50.3363L29.4908 49.9452ZM28.4202 36.5274C28.4202 36.9892 28.4785 37.4511 28.5285 37.9046L27.9452 38.0377L27.8244 38.6285L26.608 40.1762L26.6372 42.3022L25.3874 42.7183H24.7042C24.057 40.7141 23.6979 38.6283 23.6378 36.5232L28.4202 36.5274ZM23.7044 42.6933L23.4253 42.6393L23.1629 42.3439L21.8215 42.2274L22.238 42.789L20.9883 42.556L21.3132 42.2565L21.0091 41.9569L20.1135 42.348L19.7927 42.9388L19.9177 44.2993L20.9508 46.7457L21.4465 47.5196L21.7298 47.6236L20.9508 46.1466L20.78 45.3935L20.955 45.2105L20.8467 44.7944L21.3174 44.8568L22.0381 45.9469L22.2172 46.0176V45.223L22.5088 45.3935L22.5713 45.8096L23.3295 46.0093L23.6461 45.7846L23.7544 45.8595V46.4378L24.0877 46.8539L24.5043 46.9454L25.3874 48.4391L25.9248 48.5888L26.0914 47.8899C27.0221 49.4257 28.1263 50.8496 29.3825 52.1336L26.0081 55.5037C20.9928 50.4362 18.0998 43.6503 17.9181 36.5274H22.6963C22.7528 38.6187 23.0919 40.6927 23.7044 42.6933ZM25.7873 16.4278L29.1617 19.7978C25.0803 24.051 22.7666 29.6924 22.688 35.583H17.9139C17.9848 28.4304 20.7946 21.5763 25.7665 16.4278H25.7873ZM60.3638 14.6887L60.0764 14.2227L59.4515 13.9107L58.9641 14.281L59.589 14.6138L60.2597 15.1256L60.3638 14.6887ZM57.4436 28.1481V28.5142L58.2767 28.2687L58.5308 27.7653L57.9601 27.0164L58.2642 26.5587L59.0349 27.1079L59.1766 26.9956L59.0224 26.8874L58.8475 26.5546L59.1641 26.3715L58.8558 25.9555L58.1309 26.3216L57.8893 26.7751L57.7435 27.1703L58.0643 27.707L57.9476 27.9567L57.4436 28.1481ZM22.9087 49.5416L22.9712 49.3253L22.5547 48.3933L22.0464 48.2061L22.9087 49.5416ZM42.4382 31.618C42.4382 32.4168 42.9256 32.9826 43.8129 33.4694C43.8129 33.4694 43.8129 33.3321 43.8129 33.1116L43.2547 32.5541L43.5505 32.0174L43.7921 31.9508C43.7921 31.0188 43.7546 29.9745 43.7504 29.8248H43.7088C42.884 30.2824 42.4382 30.8316 42.4382 31.618Z" fill="white"/>
<path d="M47.9385 56.1301C49.581 56.9585 51.0957 58.1055 51.7299 60.2766C52.0082 56.6809 49.987 55.1242 47.9841 54.0728C47.9841 54.0774 47.9385 56.1347 47.9385 56.1301Z" fill="white"/>
<path d="M58.8565 19.6628C58.8565 16.3994 56.484 12.7763 50.6668 11.4973C50.0802 11.3914 49.4874 11.323 48.892 11.2925C48.892 11.7841 48.8555 12.9128 48.8555 12.9128C48.8555 13.2679 48.819 14.5742 48.8099 14.8564C49.1856 14.8823 49.5591 14.934 49.9277 15.0111C53.3085 15.8168 54.5176 17.7421 54.5176 19.6628C54.5176 22.7625 51.8622 23.9322 48.5863 24.8152L47.505 25.0974C46.5149 25.3432 45.4975 25.5799 44.4892 25.8485C44.1287 25.944 43.7728 26.0487 43.417 26.1534C39.7989 27.2549 36.6873 28.9936 36.6873 33.4359C36.6873 37.8783 40.2369 39.5078 43.6998 40.5728C43.6785 39.3014 43.6542 38.0239 43.6268 36.7404C42.0984 36.0258 41.0216 35.0836 41.0216 33.4997C41.0216 31.9157 42.0026 31.0145 43.5037 30.3136C43.8367 30.1634 44.1926 30.0268 44.5713 29.8994C45.4336 29.6081 46.3963 29.3577 47.4229 29.1119L48.5042 28.8525C53.3815 27.7146 58.8565 26.1898 58.8565 19.6628Z" fill="white"/>
<path d="M41.3181 50.8275C41.3181 52.6118 42.6413 53.5585 43.9598 54.3186C43.9598 54.0182 43.9051 51.2554 43.9051 51.2099C43.9325 50.6591 44.4663 50.3269 44.8997 50.122C45.5834 49.8203 46.2824 49.5545 46.9939 49.3255C47.3863 49.189 47.7193 49.057 48.0935 48.9477C50.7397 48.1512 53.8012 47.1271 53.8012 43.941C53.8012 40.7549 51.1777 39.3894 48.3261 38.4199C48.3261 39.444 48.276 40.9415 48.2532 41.9747C49.4668 42.4299 50.2698 43.0261 50.2698 43.941C50.2698 45.0925 49.0379 45.7616 48.1665 46.0893C47.8015 46.2304 47.254 46.4125 47.0943 46.4626C46.3916 46.681 45.6343 46.9177 44.9271 47.1908C44.5614 47.3224 44.2035 47.4744 43.8549 47.646C42.5956 48.2741 41.3136 49.1981 41.3181 50.8275Z" fill="white"/>
<path d="M43.1111 11.8022C42.0128 12.1468 40.9446 12.5807 39.9173 13.0994C38.7767 13.4772 37.1798 13.5546 35.5054 15.3479C34.9637 15.9691 34.4565 16.6194 33.9861 17.296C33.4842 18.0152 33.4614 19.1713 33.0736 19.7948C32.5443 20.7051 32.6721 21.2104 32.6721 21.2104V21.2377C32.5739 21.662 32.3627 22.052 32.0607 22.3665C31.8101 22.6791 31.4824 22.9215 31.1097 23.0699C30.737 23.2183 30.3321 23.2676 29.9346 23.2131C30.6919 23.5909 31.7596 23.0629 31.7596 23.0629C31.5978 23.5557 31.4638 24.0572 31.3581 24.5649C32.2067 22.6487 32.9869 21.9477 33.2287 21.752C33.5937 21.8339 34.3511 21.8021 35.7563 20.9964C37.3441 20.0861 39.7303 18.6069 40.4055 17.6692C41.1177 16.7076 42.0939 15.9725 43.216 15.5528C43.1659 14.1099 43.1385 12.8628 43.1111 11.8022ZM36.4133 17.7876L35.5875 17.9651L36.573 16.3857L37.7228 16.4221L36.4133 17.7876Z" fill="white"/>
<path d="M46.3916 50.6045C46.2365 50.6592 45.8395 50.8276 45.5886 50.914C45.3376 51.0005 44.9863 51.1462 44.9863 51.2372C44.9863 51.3282 45.2418 65.0786 45.2418 65.3835C45.2418 68.2283 46.6927 68.2465 46.6927 65.3835C46.6927 65.1787 46.9847 50.4088 46.9847 50.4088C46.9847 50.4088 46.638 50.5226 46.3916 50.6045Z" fill="white"/>
<path d="M44.886 46.0439C45.3422 45.8891 45.7985 45.7526 46.2091 45.6206L47.0897 45.3475C47.0897 44.4781 47.3543 32.4528 47.3999 30.2681C46.4511 30.4872 45.5145 30.7561 44.594 31.0737C44.6259 32.7123 44.8632 44.733 44.886 46.0439Z" fill="white"/>
<path d="M46.0814 0C42.0025 0 43.7363 6.0354 44.0602 8.00169C44.0602 8.09727 44.3887 21.6564 44.4526 24.747C45.0731 24.5831 45.689 24.4329 46.2776 24.2918L47.5095 23.9823C47.5688 20.9919 47.8699 8.05175 47.8791 7.98348C48.1482 5.8761 50.2835 0 46.0814 0Z" fill="white"/>
<path d="M112.763 19.2395H112.694L109.24 38.0558H104.504L100.074 15.093H103.843L106.923 32.7942H106.982L110.281 15.093H115.181L118.447 32.7942H118.511L121.705 15.093H125.355L120.829 38.0558H116.029L112.763 19.2395Z" fill="white"/>
<path d="M132.053 20.8508C135.347 20.8508 139.152 22.6714 139.152 29.5671C139.152 36.6767 135.347 38.3198 132.053 38.3198C128.759 38.3198 124.922 36.6767 124.922 29.5853C124.922 22.6623 128.754 20.8508 132.053 20.8508ZM132.053 35.4159C134.562 35.4159 135.128 32.3891 135.128 29.558C135.128 26.7269 134.562 23.7365 132.053 23.7365C129.543 23.7365 128.941 26.7315 128.941 29.558C128.941 32.3845 129.539 35.425 132.053 35.425V35.4159Z" fill="white"/>
<path d="M141.566 23.9095C141.579 22.9763 141.538 22.0432 141.443 21.1148H144.96C144.992 22.1344 145.088 23.1858 145.088 24.2053H145.147C145.604 22.8899 146.845 20.8508 149.254 20.8508C149.477 20.8643 149.698 20.8978 149.915 20.9509V24.7652C149.559 24.6575 149.188 24.6023 148.816 24.6013C147.214 24.6013 145.453 25.6209 145.453 28.7797V38.0558H141.557L141.566 23.9095Z" fill="white"/>
<path d="M152.388 13.3817H156.284V38.0558H152.388V13.3817Z" fill="white"/>
<path d="M172.527 13.3817V35.161C172.508 36.1275 172.55 37.0943 172.65 38.0558H169C168.908 37.1819 168.865 36.3036 168.872 35.425H168.777C168.152 36.8724 166.988 38.3198 164.474 38.3198C160.455 38.3198 158.789 34.3053 158.789 29.6035C158.789 24.0733 160.893 20.8508 164.383 20.8508C165.272 20.8193 166.15 21.0614 166.897 21.5442C167.643 22.027 168.223 22.7272 168.558 23.5499H168.622V13.3817H172.527ZM165.551 35.3294C167.832 35.3294 168.631 32.7259 168.631 29.5352C168.631 26.2444 167.75 23.8457 165.615 23.8457C163.48 23.8457 162.695 26.0487 162.695 29.4396C162.695 33.354 163.293 35.3294 165.551 35.3294Z" fill="white"/>
<path d="M185.357 15.093H189.381V24.4375H195.878V15.093H199.902V38.0558H195.878V27.924H189.381V38.0558H185.357V15.093Z" fill="white"/>
<path d="M214.822 37.2365C213.306 37.9402 211.657 38.3097 209.985 38.3198C204.77 38.3198 202.507 34.4054 202.507 29.8311C202.507 24.7652 205.053 20.8508 209.169 20.8508C212.654 20.8508 215.638 22.9901 215.638 29.8994V30.6868H206.276C206.276 33.5816 207.376 35.3294 210.382 35.3294C212.768 35.3294 213.9 34.5693 214.625 34.0094L214.822 37.2365ZM211.87 28.1333C211.87 25.1384 210.925 23.6227 209.169 23.6227C207.125 23.6227 206.276 25.8985 206.276 28.1333H211.87Z" fill="white"/>
<path d="M219.124 22.1025C220.701 21.2708 222.459 20.8408 224.243 20.8508C229.262 20.8508 230.43 23.4179 230.43 27.6782V35.0472C230.434 36.048 230.509 37.0472 230.653 38.0376H227.131C226.96 37.2916 226.886 36.5267 226.912 35.7618H226.853C225.876 37.1273 224.649 38.3243 222.327 38.3243C219.813 38.3243 217.49 36.5037 217.49 33.3586C217.49 28.7524 221.072 27.6008 226.004 27.6008H226.789V26.9727C226.789 25.2932 226.004 23.7456 223.773 23.7456C222.153 23.7848 220.593 24.365 219.343 25.3933L219.124 22.1025ZM226.789 29.7674H226.442C223.111 29.7674 221.136 30.4911 221.136 32.9535C221.136 34.501 222.108 35.5524 223.613 35.5524C225.94 35.5524 226.807 33.7318 226.807 30.7141L226.789 29.7674Z" fill="white"/>
<path d="M234.262 13.3817H238.163V38.0558H234.267L234.262 13.3817Z" fill="white"/>
<path d="M243.027 17.6283L246.923 16.3857V21.1148H250.158V24.1234H246.923V32.908C246.923 34.7286 247.548 35.2429 248.68 35.2429C249.196 35.2517 249.706 35.1262 250.158 34.8788V37.7781C249.344 38.1655 248.45 38.3572 247.548 38.338C244.66 38.338 243.027 36.9725 243.027 33.4041V24.1234H240.445V21.1148H243.018L243.027 17.6283Z" fill="white"/>
<path d="M252.166 13.3817H256.062V23.2859H256.158C256.847 22.2299 257.759 20.8508 260.177 20.8508C263.827 20.8508 264.95 23.7138 264.95 27.1365V38.0603H261.053V27.8921C261.053 25.2932 260.428 24.2053 258.827 24.2053C256.783 24.2053 256.062 26.026 256.062 28.188V38.0558H252.166V13.3817Z" fill="white"/>
<path d="M108.647 44.1504C113.21 44.1504 117.38 47.7051 117.38 55.9845C117.38 64.2638 113.205 67.7913 108.647 67.7913C104.089 67.7913 99.9192 64.2411 99.9192 55.9845C99.9192 47.7279 104.094 44.1504 108.647 44.1504ZM108.647 64.5506C111.193 64.5506 113.233 62.2748 113.233 55.9663C113.233 49.6578 111.193 47.3774 108.647 47.3774C106.101 47.3774 104.085 49.6532 104.085 55.9663C104.085 62.2793 106.106 64.5688 108.647 64.5688V64.5506Z" fill="white"/>
<path d="M119.994 53.3172C120.005 52.3826 119.964 51.4481 119.871 50.518H123.389C123.42 51.5421 123.512 52.5935 123.512 53.6131H123.576C124.032 52.2977 125.273 50.2586 127.682 50.2586C127.903 50.2725 128.123 50.3045 128.339 50.3542V54.1638C127.984 54.0558 127.615 54.0006 127.244 54C125.638 54 123.881 55.0195 123.881 58.1783V67.4545H119.994V53.3172Z" fill="white"/>
<path d="M130.775 70.0944C132.217 70.977 133.862 71.4769 135.552 71.5463C139.202 71.5463 139.823 68.8791 139.823 66.2119V64.6006H139.759C139.134 65.916 138.034 67.4636 135.488 67.4636C133.207 67.4636 129.835 65.8842 129.835 59.0431C129.835 54.3687 131.437 50.2586 135.675 50.2586C138.034 50.2586 139.134 51.6741 139.951 53.1534H140.069C140.069 52.2431 140.165 51.4101 140.197 50.518H143.719C143.655 51.4283 143.591 52.2977 143.591 53.1852V65.6884C143.591 70.9865 142.054 74.7916 136.118 74.7916C134.215 74.7791 132.331 74.4212 130.556 73.7356L130.775 70.0944ZM136.834 64.4686C139.284 64.4686 140.256 62.648 140.256 58.7791C140.256 55.2244 138.97 53.3172 137.117 53.3491C135.073 53.3855 134.288 55.3564 134.288 58.811C134.288 62.8118 135.507 64.4686 136.834 64.4686Z" fill="white"/>
<path d="M147.826 51.5057C149.405 50.678 151.165 50.2498 152.949 50.2586C157.968 50.2586 159.136 52.8257 159.136 57.086V64.4868C159.139 65.489 159.213 66.4897 159.355 67.4818H155.837C155.664 66.7269 155.59 65.9526 155.618 65.1787H155.554C154.583 66.5442 153.355 67.7458 151.033 67.7458C148.519 67.7458 146.197 65.9251 146.197 62.78C146.197 58.1738 149.774 57.0222 154.706 57.0222H155.491V56.3941C155.491 54.7191 154.706 53.1716 152.475 53.1716C150.857 53.2116 149.299 53.7899 148.049 54.8147L147.826 51.5057ZM155.468 59.1706H155.126C151.795 59.1706 149.815 59.8943 149.815 62.3567C149.815 63.8997 150.791 64.9557 152.297 64.9557C154.619 64.9557 155.468 63.135 155.468 60.1173V59.1706Z" fill="white"/>
<path d="M163.037 53.3172C163.048 52.3826 163.007 51.4481 162.914 50.518H166.564C166.591 51.3737 166.687 52.2613 166.687 53.1215H166.751C167.316 52.0974 168.416 50.2586 171.053 50.2586C174.726 50.2586 175.826 53.1215 175.826 56.5398V67.4636H171.934V57.2999C171.934 54.7009 171.304 53.6131 169.703 53.6131C167.659 53.6131 166.938 55.4337 166.938 57.5957V67.4636H163.041L163.037 53.3172Z" fill="white"/>
<path d="M179.334 43.3129H183.354V47.3365H179.334V43.3129ZM179.394 50.518H183.29V67.4636H179.394V50.518Z" fill="white"/>
<path d="M186.917 63.9452L193.825 53.6131H187.136V50.5226H197.721V54.0136L190.937 64.3776H197.94V67.4681H186.917V63.9452Z" fill="white"/>
<path d="M201.627 51.5057C203.206 50.6775 204.966 50.2492 206.75 50.2586C211.769 50.2586 212.937 52.8257 212.937 57.086V64.4868C212.94 65.489 213.014 66.4897 213.156 67.4818H209.638C209.462 66.7273 209.389 65.9527 209.419 65.1787H209.355C208.379 66.5442 207.156 67.7458 204.834 67.7458C202.32 67.7458 199.993 65.9251 199.993 62.78C199.993 58.1738 203.575 57.0222 208.507 57.0222H209.292V56.3941C209.292 54.7191 208.507 53.1716 206.276 53.1716C204.658 53.2116 203.1 53.79 201.85 54.8147L201.627 51.5057ZM209.292 59.1706H208.963C205.632 59.1706 203.657 59.8943 203.657 62.3567C203.657 63.8997 204.629 64.9557 206.139 64.9557C208.461 64.9557 209.333 63.135 209.333 60.1173L209.292 59.1706Z" fill="white"/>
<path d="M217.413 47.0315L221.309 45.7844V50.5226H224.544V53.5175H221.309V62.3021C221.309 64.1227 221.939 64.6371 223.07 64.6371C223.585 64.6471 224.092 64.5232 224.544 64.2775V67.1723C223.731 67.5596 222.839 67.7513 221.939 67.7321C219.046 67.7321 217.413 66.3667 217.413 62.7982V53.513H214.84V50.5226H217.413V47.0315Z" fill="white"/>
<path d="M227.213 43.3129H231.233V47.3365H227.213V43.3129ZM227.715 50.5226H231.612V67.4681H227.715V50.5226Z" fill="white"/>
<path d="M241.727 50.2586C245.025 50.2586 248.821 52.0792 248.821 58.9749C248.821 66.0844 245.025 67.7276 241.727 67.7276C238.428 67.7276 234.595 66.0844 234.595 58.9749C234.595 52.0656 238.428 50.2586 241.727 50.2586ZM241.727 64.8237C244.236 64.8237 244.802 61.7969 244.802 58.9658C244.802 56.1347 244.236 53.1443 241.727 53.1443C239.217 53.1443 238.62 56.1438 238.62 58.9749C238.62 61.806 239.213 64.8328 241.727 64.8328V64.8237Z" fill="white"/>
<path d="M252.216 53.3172C252.228 52.3825 252.186 51.4478 252.088 50.518H255.738C255.77 51.3737 255.866 52.2613 255.866 53.1215H255.93C256.491 52.0974 257.59 50.2586 260.228 50.2586C263.905 50.2586 265.005 53.1215 265.005 56.5398V67.4636H261.113V57.2999C261.113 54.7009 260.483 53.6131 258.877 53.6131C256.838 53.6131 256.14 55.4337 256.14 57.5957V67.4636H252.216V53.3172Z" fill="white"/>
</g>
<line x1="286.5" y1="75" x2="286.5" y2="-2.18557e-08" stroke="white"/>
<path d="M317.641 28.5156V40.6904C317.641 42.7132 317.006 44.3128 315.736 45.4893C314.475 46.6657 312.749 47.2539 310.557 47.2539C308.398 47.2539 306.685 46.6826 305.415 45.54C304.146 44.3975 303.498 42.8275 303.473 40.8301V28.5156H307.281V40.7158C307.281 41.9261 307.569 42.8105 308.145 43.3691C308.729 43.9193 309.533 44.1943 310.557 44.1943C312.698 44.1943 313.785 43.0687 313.819 40.8174V28.5156H317.641ZM325.512 41.4902L324.191 42.8105V47H320.522V27.5H324.191V38.3037L324.902 37.3896L328.419 33.2637H332.824L327.86 38.9893L333.256 47H329.041L325.512 41.4902ZM342.13 36.7041C341.631 36.6364 341.19 36.6025 340.81 36.6025C339.422 36.6025 338.512 37.0723 338.08 38.0117V47H334.411V33.2637H337.877L337.979 34.9014C338.715 33.6403 339.735 33.0098 341.038 33.0098C341.444 33.0098 341.825 33.0648 342.181 33.1748L342.13 36.7041ZM351.486 47C351.317 46.6699 351.194 46.2594 351.118 45.7686C350.229 46.7588 349.074 47.2539 347.652 47.2539C346.307 47.2539 345.189 46.8646 344.301 46.0859C343.421 45.3073 342.98 44.3255 342.98 43.1406C342.98 41.6849 343.518 40.5677 344.593 39.7891C345.676 39.0104 347.238 38.6169 349.277 38.6084H350.966V37.8213C350.966 37.1865 350.801 36.6787 350.471 36.2979C350.149 35.917 349.637 35.7266 348.935 35.7266C348.317 35.7266 347.83 35.8747 347.475 36.1709C347.128 36.4671 346.954 36.8734 346.954 37.3896H343.285C343.285 36.5941 343.531 35.8577 344.021 35.1807C344.512 34.5036 345.206 33.9746 346.104 33.5938C347.001 33.2044 348.008 33.0098 349.125 33.0098C350.818 33.0098 352.159 33.4372 353.149 34.292C354.148 35.1383 354.647 36.3317 354.647 37.8721V43.8262C354.656 45.1296 354.838 46.1156 355.193 46.7842V47H351.486ZM348.452 44.4482C348.994 44.4482 349.493 44.3298 349.95 44.0928C350.407 43.8473 350.746 43.5215 350.966 43.1152V40.7539H349.595C347.758 40.7539 346.781 41.3887 346.662 42.6582L346.649 42.874C346.649 43.3311 346.81 43.7077 347.132 44.0039C347.453 44.3001 347.894 44.4482 348.452 44.4482ZM361.338 47H357.656V33.2637H361.338V47ZM357.44 29.709C357.44 29.1589 357.622 28.7061 357.986 28.3506C358.359 27.9951 358.862 27.8174 359.497 27.8174C360.123 27.8174 360.623 27.9951 360.995 28.3506C361.368 28.7061 361.554 29.1589 361.554 29.709C361.554 30.2676 361.363 30.7246 360.982 31.0801C360.61 31.4355 360.115 31.6133 359.497 31.6133C358.879 31.6133 358.38 31.4355 357.999 31.0801C357.627 30.7246 357.44 30.2676 357.44 29.709ZM367.749 33.2637L367.863 34.8506C368.845 33.6234 370.161 33.0098 371.812 33.0098C373.267 33.0098 374.351 33.4372 375.062 34.292C375.772 35.1468 376.136 36.4248 376.153 38.126V47H372.484V38.2148C372.484 37.4362 372.315 36.8734 371.977 36.5264C371.638 36.1709 371.075 35.9932 370.288 35.9932C369.256 35.9932 368.481 36.4333 367.965 37.3135V47H364.296V33.2637H367.749ZM385.269 47.2539C383.254 47.2539 381.612 46.6361 380.343 45.4004C379.082 44.1647 378.451 42.5186 378.451 40.4619V40.1064C378.451 38.7269 378.718 37.4954 379.251 36.4121C379.784 35.3203 380.537 34.4824 381.511 33.8984C382.493 33.306 383.61 33.0098 384.862 33.0098C386.741 33.0098 388.218 33.6022 389.293 34.7871C390.376 35.972 390.918 37.652 390.918 39.8271V41.3252H382.171C382.289 42.2223 382.645 42.9417 383.237 43.4834C383.838 44.0251 384.596 44.2959 385.51 44.2959C386.923 44.2959 388.028 43.7839 388.823 42.7598L390.626 44.7783C390.076 45.557 389.331 46.1663 388.392 46.6064C387.452 47.0381 386.411 47.2539 385.269 47.2539ZM384.85 35.9805C384.122 35.9805 383.529 36.2259 383.072 36.7168C382.624 37.2077 382.336 37.9102 382.209 38.8242H387.312V38.5322C387.296 37.7197 387.076 37.0934 386.652 36.6533C386.229 36.2048 385.628 35.9805 384.85 35.9805Z" fill="white"/>
<defs>
<clipPath id="clip0">
<rect width="265" height="81" fill="white"/>
</clipPath>
</defs>
</svg>
