<svg width="25" height="24" viewBox="0 0 25 24" fill="none" xmlns="http://www.w3.org/2000/svg">
<g clip-path="url(#clip0)">
<path d="M19.4569 11.9908C19.0081 12.9026 19.614 13.2673 20.1975 13.6777C20.9381 14.1792 21.0727 14.5667 20.8259 15.4102C20.579 16.2992 20.1077 17.0743 19.4569 17.7126C19.0081 18.1457 18.5144 18.3281 17.9309 17.9633C17.2128 17.4846 16.5844 17.5302 15.8214 18.0317C15.193 18.442 14.9013 18.8068 14.8788 19.5591C14.8339 20.5849 14.5646 20.9268 13.5548 21.0408C12.7469 21.132 11.8941 21.0636 11.0637 20.9496C10.4803 20.8584 10.0539 20.4481 10.0763 19.7642C10.1212 18.8752 9.73969 18.3965 8.95423 17.9405C8.25854 17.553 7.78727 17.553 7.13646 17.8949C6.30612 18.3281 5.92461 18.2369 5.2738 17.5302C4.64543 16.8463 4.1966 16.0257 4.03951 15.091C3.94974 14.5439 4.06195 14.088 4.55567 13.8372C5.34113 13.4041 5.67775 12.857 5.61043 11.8768C5.56554 11.1473 5.38601 10.737 4.80253 10.3495C3.9273 9.77955 3.74777 9.32363 4.1966 8.3434C4.53323 7.59113 5.02694 6.88445 5.5431 6.22337C5.87973 5.79024 6.41832 5.65347 6.95692 5.99541C7.6975 6.47412 8.32586 6.49692 9.11132 5.94982C9.69481 5.53949 10.009 5.22034 10.0314 4.49087C10.0763 3.39666 10.3681 3.05472 11.4228 2.94074C12.2307 2.84955 13.0611 2.91794 13.8465 3.03192C14.43 3.12311 14.8564 3.53343 14.8339 4.21732C14.7891 5.12916 15.1481 5.65347 15.9785 6.08659C16.6068 6.40574 17.0332 6.47412 17.6392 6.15498C18.6266 5.65347 19.0979 5.72185 19.7487 6.65649C20.2199 7.34037 20.5566 8.13823 20.8483 8.9133C21.0503 9.41481 20.8483 9.87073 20.377 10.1899C20.3546 10.2127 20.3097 10.2355 20.2873 10.2583C19.6813 10.6458 18.8959 11.0105 19.4569 11.9908ZM19.8609 14.8631C19.7935 14.7947 19.7038 14.6579 19.614 14.5895C19.2998 14.3388 18.9632 14.088 18.6266 13.86C18.2675 13.6321 18.1553 13.3357 18.2226 12.9026C18.29 12.3783 18.3573 11.8312 18.2451 11.3297C18.1104 10.6686 18.3124 10.2811 18.851 9.91633C20.0628 9.09567 20.0628 8.8905 19.2325 7.65952C19.1427 7.54554 19.053 7.43156 18.9632 7.29478C18.7163 6.93004 18.4471 6.86166 18.0655 7.08962C17.7514 7.27199 17.3923 7.38597 17.0557 7.56833C16.7415 7.72791 16.4722 7.65952 16.1804 7.45435C15.7316 7.13521 15.2603 6.77047 14.7442 6.5881C14.1158 6.36014 13.9138 5.97261 13.869 5.33432C13.7792 3.94376 13.5772 3.78419 12.1634 3.87538C11.9839 3.89817 11.8043 3.94376 11.6023 3.94376C11.2657 3.98936 11.0862 4.14893 11.0862 4.53646C11.0862 4.92399 10.9964 5.28873 10.974 5.67626C10.9515 6.08659 10.772 6.31455 10.3905 6.47412C9.89678 6.67929 9.38062 6.90725 8.97667 7.27199C8.46052 7.72791 8.03412 7.70511 7.47308 7.43156C6.19391 6.77047 6.05926 6.86166 5.38601 8.20662C5.34113 8.29781 5.29624 8.41179 5.25136 8.52577C5.02694 8.95889 5.07183 9.30083 5.5431 9.55159C5.83484 9.71116 6.0817 9.96192 6.37344 10.1443C6.71007 10.3722 6.79983 10.6458 6.75495 11.0561C6.68762 11.5804 6.59786 12.1275 6.71007 12.6291C6.86716 13.3357 6.6203 13.7005 6.0817 14.088C4.91473 14.8859 4.91473 15.0454 5.67775 16.2536C5.74507 16.3676 5.83484 16.4588 5.90217 16.5728C6.17147 17.0059 6.48565 17.1427 6.95692 16.8235C7.22622 16.6412 7.56285 16.55 7.87703 16.3904C8.19121 16.2308 8.46052 16.2992 8.75226 16.5044C9.20109 16.8235 9.67236 17.1883 10.1885 17.3706C10.7944 17.5986 11.0413 17.9633 11.0637 18.6244C11.1311 20.015 11.3555 20.1745 12.7693 20.0834C12.9264 20.0834 13.0611 20.0378 13.2181 20.015C13.667 19.9922 13.8914 19.787 13.869 19.3083C13.8241 18.2597 14.1158 17.4162 15.2828 17.1883C15.3277 17.1883 15.3501 17.1655 15.3725 17.1427C16.2927 16.1624 17.2576 16.2536 18.29 16.9375C18.4022 17.0059 18.6041 17.0287 18.6939 16.9831C19.2774 16.4132 19.6365 15.7293 19.8609 14.8631Z" fill="white"/>
<path d="M23.8106 8.41169C24.1697 8.3433 24.4839 8.16093 24.7083 8.22932C25.0898 8.3433 25.0225 8.70804 24.9327 9.04998C24.7307 9.75666 24.5512 10.4633 24.3716 11.1928C24.2819 11.5347 24.1472 11.8083 23.7433 11.7855C23.3393 11.7627 23.2496 11.4436 23.2271 11.1016C22.6436 5.60778 18.7612 1.64127 13.3977 1.11696C13.0162 1.07136 12.6571 1.00298 12.6795 0.52426C12.7244 -4.92292e-05 13.1059 -0.0228453 13.5099 0.0227468C18.4471 0.63824 21.8357 3.28258 23.676 8.00136C23.7208 8.16093 23.7882 8.3433 23.8106 8.41169Z" fill="white"/>
<path d="M0.964986 15.3417C0.942544 15.4329 0.920102 15.5925 0.875219 15.5925C0.650803 15.6381 0.381503 15.7521 0.224411 15.6609C0.0673195 15.5697 -0.0224471 15.2278 -5.4345e-06 15.0454C0.157086 14.2703 0.403944 13.518 0.583477 12.743C0.673244 12.401 0.830336 12.1275 1.21184 12.1731C1.59335 12.2187 1.68312 12.5378 1.70556 12.8798C2.01974 16.2536 3.54578 18.9435 6.26122 20.904C7.80969 22.021 9.5377 22.6593 11.4452 22.8188C11.5574 22.8188 11.7145 22.796 11.7594 22.8644C11.939 23.0468 12.0736 23.252 12.2307 23.4571C12.0287 23.6167 11.8267 23.913 11.6472 23.913C10.8618 23.8447 10.0763 23.7535 9.33572 23.5483C5.40843 22.3857 2.69299 19.8098 1.25673 15.866C1.21184 15.7293 1.14452 15.5925 1.09964 15.4557C1.05475 15.4101 1.00987 15.3873 0.964986 15.3417Z" fill="white"/>
<path d="M12.4551 15.5469C10.5027 15.5469 8.93179 13.9511 8.93179 11.9679C8.93179 10.0074 10.5252 8.3889 12.4551 8.3889C14.3851 8.3889 15.9785 10.0074 15.9785 11.9679C16.0009 13.9511 14.4076 15.5469 12.4551 15.5469ZM12.4551 14.4526C13.8241 14.4526 14.9237 13.3584 14.9237 11.9907C14.9237 10.6229 13.8241 9.50591 12.4776 9.50591C11.1086 9.50591 10.009 10.6001 10.009 11.9679C10.009 13.3356 11.1086 14.4526 12.4551 14.4526Z" fill="white"/>
</g>
<defs>
<clipPath id="clip0">
<rect width="25" height="23.913" fill="white"/>
</clipPath>
</defs>
</svg>
