<svg width="16" height="16" viewBox="0 0 16 16" fill="none" xmlns="http://www.w3.org/2000/svg">
<g clip-path="url(#clip0)">
<path d="M7.99997 6.96252C6.32051 6.96252 4.95416 8.3289 4.95416 10.0084C4.95416 11.6878 6.32051 13.0542 7.99997 13.0542C9.67944 13.0542 11.0458 11.6878 11.0458 10.0084C11.0458 8.3289 9.67944 6.96252 7.99997 6.96252ZM9.39651 10.742C9.57954 10.925 9.57957 11.2218 9.39651 11.4049C9.30497 11.4964 9.18501 11.5421 9.06507 11.5421C8.9451 11.5421 8.82513 11.4964 8.7336 11.4049L7.99994 10.6712L7.26635 11.4049C7.17482 11.4964 7.05482 11.5421 6.93488 11.5421C6.81488 11.5421 6.69494 11.4964 6.60344 11.4049C6.42038 11.2218 6.42038 10.925 6.60344 10.742L7.33707 10.0083L6.60344 9.27471C6.42038 9.09168 6.42038 8.79486 6.60344 8.6118C6.78647 8.42877 7.08329 8.42877 7.26635 8.6118L7.99994 9.34543L8.7336 8.6118C8.91663 8.42874 9.21344 8.42874 9.39651 8.6118C9.57957 8.79483 9.57954 9.09164 9.39651 9.27471L8.66285 10.0083L9.39651 10.742Z" fill="white"/>
<path d="M11.2635 4.95416C10.3129 4.95416 9.53957 4.18081 9.53957 3.23022V0H3.23019C2.2796 0 1.50623 0.773375 1.50623 1.72397V14.276C1.50623 15.2266 2.2796 16 3.23019 16H12.7698C13.7204 16 14.4938 15.2266 14.4938 14.276V4.95416H11.2635ZM7.99998 13.9917C5.80357 13.9917 4.01666 12.2047 4.01666 10.0083C4.01666 7.81191 5.80357 6.025 7.99998 6.025C10.1964 6.025 11.9833 7.81194 11.9833 10.0083C11.9833 12.2048 10.1964 13.9917 7.99998 13.9917Z" fill="white"/>
<path d="M11.2635 4.01666H14.2192L10.4771 0.274597V3.23022C10.4771 3.66388 10.8299 4.01666 11.2635 4.01666Z" fill="white"/>
</g>
<defs>
<clipPath id="clip0">
<rect width="16" height="16" fill="white"/>
</clipPath>
</defs>
</svg>
