<svg width="20" height="20" viewBox="0 0 20 20" fill="none" xmlns="http://www.w3.org/2000/svg">
<path d="M7.65625 20C9.38446 20 10.7225 19.8346 11.7958 19.4965C11.7731 19.3744 11.7578 19.2496 11.7578 19.1211C11.7578 18.5471 11.9965 18.0289 12.3779 17.6562C11.9965 17.2836 11.7578 16.7654 11.7578 16.1914C11.7578 15.6174 11.9965 15.0992 12.3779 14.7266C11.9965 14.3539 11.7578 13.8358 11.7578 13.2617C11.7578 12.6877 11.9965 12.1695 12.3779 11.7969C11.9965 11.4243 11.7578 10.9061 11.7578 10.332C11.7578 9.65393 12.0926 9.05624 12.6015 8.68271C12.253 8.36365 11.8806 8.0777 11.49 7.82608C11.6487 7.62619 11.7578 7.38434 11.7578 7.10938C11.7578 6.4621 11.2332 5.9375 10.5859 5.9375H4.72656C4.07928 5.9375 3.55469 6.4621 3.55469 7.10938C3.55469 7.38373 3.66348 7.62482 3.82126 7.8244C1.54648 9.28986 0 11.9435 0 14.7266C0 19.4536 4.38614 20 7.65625 20ZM7.64999 14.3123C6.6806 14.3123 5.89218 13.5239 5.89218 12.5545C5.89218 11.7892 6.38657 11.1436 7.07031 10.9027V10.0391C7.07031 9.71527 7.33246 9.45312 7.65625 9.45312C7.98004 9.45312 8.24219 9.71527 8.24219 10.0391V10.9067C8.91953 11.151 9.40781 11.794 9.40781 12.5545C9.40781 12.8784 9.14566 13.1404 8.82187 13.1404C8.49792 13.1404 8.23593 12.8784 8.23593 12.5545C8.23593 12.2311 7.97318 11.9685 7.64999 11.9685C7.32666 11.9685 7.06406 12.2311 7.06406 12.5545C7.06406 12.8778 7.32666 13.1404 7.64999 13.1404C8.61923 13.1404 9.40781 13.929 9.40781 14.8982C9.40781 15.6587 8.91953 16.3017 8.24219 16.5462V17.0703C8.24219 17.3941 7.98004 17.6562 7.65625 17.6562C7.33246 17.6562 7.07031 17.3941 7.07031 17.0703V16.55C6.38657 16.3092 5.89218 15.6635 5.89218 14.8982C5.89218 14.5744 6.15417 14.3123 6.47812 14.3123C6.80191 14.3123 7.06406 14.5744 7.06406 14.8982C7.06406 15.2216 7.32666 15.4842 7.64999 15.4842C7.97318 15.4842 8.23593 15.2216 8.23593 14.8982C8.23593 14.5749 7.97318 14.3123 7.64999 14.3123Z" fill="white"/>
<path d="M19.1211 18.2422H13.8086C13.3232 18.2422 12.9297 18.6357 12.9297 19.1211C12.9297 19.6065 13.3232 20 13.8086 20H19.1211C19.6065 20 20 19.6065 20 19.1211C20 18.6357 19.6065 18.2422 19.1211 18.2422Z" fill="white"/>
<path d="M19.1211 15.3125H13.8086C13.3232 15.3125 12.9297 15.706 12.9297 16.1914C12.9297 16.6768 13.3232 17.0703 13.8086 17.0703H19.1211C19.6065 17.0703 20 16.6768 20 16.1914C20 15.706 19.6065 15.3125 19.1211 15.3125Z" fill="white"/>
<path d="M19.1211 12.3828H13.8086C13.3232 12.3828 12.9297 12.7763 12.9297 13.2617C12.9297 13.7471 13.3232 14.1406 13.8086 14.1406H19.1211C19.6065 14.1406 20 13.7471 20 13.2617C20 12.7763 19.6065 12.3828 19.1211 12.3828Z" fill="white"/>
<path d="M19.1211 9.45312H13.8086C13.3232 9.45312 12.9297 9.84665 12.9297 10.332C12.9297 10.8174 13.3232 11.2109 13.8086 11.2109H19.1211C19.6065 11.2109 20 10.8174 20 10.332C20 9.84665 19.6065 9.45312 19.1211 9.45312Z" fill="white"/>
<path d="M9.30619 1.17188C9.06342 0.491333 8.4192 0 7.65626 0C6.8924 0 6.2407 0.489807 5.99854 1.17188H4.14063C3.95234 1.17188 3.77549 1.26221 3.66517 1.4151C3.55531 1.56784 3.52494 1.76468 3.58506 1.94321L4.49983 4.76562H10.8128L11.7275 1.94321C11.7876 1.76468 11.7572 1.56784 11.6473 1.4151C11.537 1.26221 11.3602 1.17188 11.1719 1.17188H9.30619Z" fill="white"/>
</svg>
