<svg width="20" height="20" viewBox="0 0 20 20" fill="none" xmlns="http://www.w3.org/2000/svg">
<path d="M2.06897 15.1724V20H8.27587V12.84L7.10972 15.1724H2.06897Z" fill="white"/>
<path d="M9.5235 12.4138L10.558 14.4828H19.5025L18.7266 12.4138H9.5235Z" fill="white"/>
<path d="M7.71789 12.4138H1.27342L0.497559 14.4828H6.68341L7.71789 12.4138Z" fill="white"/>
<path d="M8.96552 12.84V20H17.931V15.1724H10.1317L8.96552 12.84ZM17.2414 19.3104H16.5517V18.6207H17.2414V19.3104ZM13.1034 17.2414H17.2414V17.9311H13.1034V17.2414ZM13.1034 18.6207H15.8621V19.3104H13.1034V18.6207Z" fill="white"/>
<path d="M8.96549 11.7241H11.0345V3.44828H12.4138L9.99997 0L7.58618 3.44828H8.96549V11.7241Z" fill="white"/>
<path d="M11.7241 6.89656V11.7241H13.7931V7.93104C13.7931 7.74078 13.9477 7.58622 14.1379 7.58622H16.5517V8.96553L20 6.55173L16.5517 4.13794V5.51725H13.1034C12.3417 5.51725 11.7241 6.13484 11.7241 6.89656Z" fill="white"/>
<path d="M6.89655 5.51725H3.44828V4.13794L0 6.55173L3.44828 8.96553V7.58622H5.86207C6.05233 7.58622 6.2069 7.74078 6.2069 7.93104V11.7241H8.27586V6.89656C8.27586 6.13484 7.65827 5.51725 6.89655 5.51725Z" fill="white"/>
</svg>
