<svg width="20" height="20" viewBox="0 0 20 20" fill="none" xmlns="http://www.w3.org/2000/svg">
<g clip-path="url(#clip0)">
<path d="M14.5833 9.16666C11.5966 9.16666 9.16663 11.5967 9.16663 14.5833C9.16663 17.57 11.5966 20 14.5833 20C17.57 20 20 17.57 20 14.5833C20 11.5967 17.57 9.16666 14.5833 9.16666ZM16.9308 13.5342L14.2225 16.6592C14.1083 16.79 13.9458 16.8683 13.7725 16.8742C13.765 16.8742 13.7575 16.8742 13.75 16.8742C13.5841 16.8742 13.425 16.8083 13.3083 16.6908L11.85 15.2325C11.6058 14.9883 11.6058 14.5925 11.85 14.3483C12.0941 14.1042 12.49 14.1042 12.7341 14.3483L13.7183 15.3317L15.9866 12.7142C16.2125 12.4542 16.6066 12.425 16.8683 12.6508C17.1283 12.8792 17.1566 13.2733 16.9308 13.5342Z" fill="white"/>
<path d="M7.68333 0L3.63333 0.0166667C3.10833 0.0166667 2.61667 0.308333 2.36667 0.766667L0.25 4.6L7.275 4.58333L7.68333 0Z" fill="white"/>
<path d="M16.4 4.56667L14.2584 0.733337C14 0.275004 13.5167 -0.0166626 12.9833 -0.0166626L8.93335 4.06988e-06L9.35835 4.58334L16.4 4.56667Z" fill="white"/>
<path d="M16.6666 7.80832C16.0083 7.60832 15.3083 7.49999 14.5833 7.49999C10.675 7.49999 7.49997 10.675 7.49997 14.5833C7.49997 15.3083 7.60831 16.0167 7.81664 16.675L1.34164 16.6917C1.3333 16.6917 1.3333 16.6917 1.3333 16.6917C0.616638 16.6917 0.0249715 16.1 0.0249715 15.375L-0.00836182 5.84999L7.69997 5.83332H8.94997L16.6583 5.80832L16.6666 7.80832Z" fill="white"/>
</g>
<defs>
<clipPath id="clip0">
<rect width="20" height="20" fill="white"/>
</clipPath>
</defs>
</svg>
