<svg width="16" height="16" viewBox="0 0 16 16" fill="none" xmlns="http://www.w3.org/2000/svg">
<g clip-path="url(#clip0)">
<path d="M7.99991 6.96252C6.32044 6.96252 4.9541 8.3289 4.9541 10.0084C4.9541 11.6878 6.32044 13.0542 7.99991 13.0542C9.67938 13.0542 11.0458 11.6878 11.0458 10.0084C11.0458 8.3289 9.67938 6.96252 7.99991 6.96252ZM9.39644 10.742C9.57948 10.925 9.57951 11.2218 9.39644 11.4049C9.30491 11.4964 9.18495 11.5421 9.06501 11.5421C8.94504 11.5421 8.82507 11.4964 8.73354 11.4049L7.99988 10.6712L7.26629 11.4049C7.17476 11.4964 7.05476 11.5421 6.93482 11.5421C6.81482 11.5421 6.69488 11.4964 6.60338 11.4049C6.42032 11.2218 6.42032 10.925 6.60338 10.742L7.33701 10.0083L6.60338 9.27471C6.42032 9.09168 6.42032 8.79486 6.60338 8.6118C6.78641 8.42877 7.08323 8.42877 7.26629 8.6118L7.99988 9.34543L8.73354 8.6118C8.91657 8.42874 9.21338 8.42874 9.39644 8.6118C9.57951 8.79483 9.57948 9.09164 9.39644 9.27471L8.66279 10.0083L9.39644 10.742Z" fill="white"/>
<path d="M11.2635 4.95416C10.3129 4.95416 9.53957 4.18081 9.53957 3.23022V0H3.23019C2.2796 0 1.50623 0.773375 1.50623 1.72397V14.276C1.50623 15.2266 2.2796 16 3.23019 16H12.7698C13.7204 16 14.4938 15.2266 14.4938 14.276V4.95416H11.2635ZM7.99998 13.9917C5.80357 13.9917 4.01666 12.2047 4.01666 10.0083C4.01666 7.81191 5.80357 6.025 7.99998 6.025C10.1964 6.025 11.9833 7.81194 11.9833 10.0083C11.9833 12.2048 10.1964 13.9917 7.99998 13.9917Z" fill="white"/>
<path d="M11.2635 4.01672H14.2192L10.4771 0.274658V3.23028C10.4771 3.66394 10.8299 4.01672 11.2635 4.01672Z" fill="white"/>
</g>
<defs>
<clipPath id="clip0">
<rect width="16" height="16" fill="white"/>
</clipPath>
</defs>
</svg>
