<svg width="20" height="20" viewBox="0 0 20 20" fill="none" xmlns="http://www.w3.org/2000/svg">
<g clip-path="url(#clip0)">
<path d="M17.8158 14.0942C16.5558 13.0292 15.8333 11.4725 15.8333 9.82333V7.5C15.8333 4.5675 13.655 2.14 10.8333 1.73333V0.833333C10.8333 0.3725 10.46 0 9.99996 0C9.53996 0 9.16663 0.3725 9.16663 0.833333V1.73333C6.34413 2.14 4.16663 4.5675 4.16663 7.5V9.82333C4.16663 11.4725 3.44413 13.0292 2.17663 14.1008C1.85246 14.3783 1.66663 14.7817 1.66663 15.2083C1.66663 16.0125 2.32079 16.6667 3.12496 16.6667H16.875C17.6791 16.6667 18.3333 16.0125 18.3333 15.2083C18.3333 14.7817 18.1475 14.3783 17.8158 14.0942Z" fill="white"/>
<path d="M9.99996 20C11.5091 20 12.7716 18.9242 13.0616 17.5H6.93829C7.22829 18.9242 8.49079 20 9.99996 20Z" fill="white"/>
</g>
<defs>
<clipPath id="clip0">
<rect width="20" height="20" fill="white"/>
</clipPath>
</defs>
</svg>
