<svg width="20" height="20" viewBox="0 0 20 20" fill="none" xmlns="http://www.w3.org/2000/svg">
<g clip-path="url(#clip0)">
<path d="M19.7793 0.22086C18.2459 -0.290546 16.5838 0.101915 15.4408 1.24496L11.2648 5.42085L2.56406 1.69203L0.906756 3.34925L7.95022 8.73542L4.1432 12.5424L1.65726 11.7137L0 13.3711L4.1432 15.857L6.62913 20.0002L8.28639 18.3429L7.45776 15.8571L11.2648 12.05L16.6509 19.0935L18.3082 17.4362L14.5794 8.73546L18.7553 4.55953C19.8984 3.41648 20.2908 1.75437 19.7793 0.22086Z" fill="white"/>
<path d="M18.7225 10.3925C18.2648 9.93477 17.5229 9.93477 17.0652 10.3925L16.7149 10.7427L17.7092 13.063L18.7225 12.0497C19.1801 11.592 19.1801 10.8501 18.7225 10.3925Z" fill="white"/>
<path d="M9.60745 1.27735C9.14984 0.819658 8.40785 0.819658 7.95019 1.27735L6.93695 2.29063L9.25718 3.28497L9.60745 2.93462C10.0651 2.477 10.0651 1.73505 9.60745 1.27735Z" fill="white"/>
</g>
<defs>
<clipPath id="clip0">
<rect width="20" height="20" fill="white"/>
</clipPath>
</defs>
</svg>
