<svg width="20" height="20" viewBox="0 0 20 20" fill="none" xmlns="http://www.w3.org/2000/svg">
<g clip-path="url(#clip0)">
<path d="M11.0417 15H5.625C5.28 15 5 14.72 5 14.375V0.625C5 0.28 5.28 0 5.625 0H11.0417C11.3867 0 11.6667 0.28 11.6667 0.625V14.375C11.6667 14.72 11.3867 15 11.0417 15Z" fill="white"/>
<path d="M19.375 15H13.5417C13.1967 15 12.9167 14.72 12.9167 14.375V9.375C12.9167 9.03 13.1967 8.75 13.5417 8.75H19.375C19.72 8.75 20 9.03 20 9.375V14.375C20 14.72 19.72 15 19.375 15Z" fill="white"/>
<path d="M18.5417 7.49998H14.7917C14.4467 7.49998 14.1667 7.21998 14.1667 6.87498V3.95831C14.1667 3.61331 14.4467 3.33331 14.7917 3.33331H18.5417C18.8867 3.33331 19.1667 3.61331 19.1667 3.95831V6.87498C19.1667 7.21998 18.8867 7.49998 18.5417 7.49998Z" fill="white"/>
<path d="M19.1083 17.5L4.58333 17.4975C3.205 17.4975 2.08333 16.3758 2.08333 14.9975V6.66667H0.833333C0.3725 6.66667 0 6.29333 0 5.83333C0 5.37333 0.3725 5 0.833333 5H2.08333C3.0025 5 3.75 5.7475 3.75 6.66667V14.9975C3.75 15.4567 4.12333 15.8308 4.58333 15.8308L19.1083 15.8333C19.5692 15.8333 19.9417 16.2067 19.9417 16.6667C19.9417 17.1267 19.5675 17.5 19.1083 17.5Z" fill="white"/>
<path d="M7.50004 19.375C8.07533 19.375 8.5417 18.9086 8.5417 18.3334C8.5417 17.7581 8.07533 17.2917 7.50004 17.2917C6.92474 17.2917 6.45837 17.7581 6.45837 18.3334C6.45837 18.9086 6.92474 19.375 7.50004 19.375Z" fill="white"/>
<path d="M7.50004 20C6.58087 20 5.83337 19.2525 5.83337 18.3334C5.83337 17.4142 6.58087 16.6667 7.50004 16.6667C8.4192 16.6667 9.1667 17.4142 9.1667 18.3334C9.1667 19.2525 8.4192 20 7.50004 20ZM7.50004 17.9167C7.27087 17.9167 7.08337 18.1034 7.08337 18.3334C7.08337 18.5634 7.27087 18.75 7.50004 18.75C7.7292 18.75 7.9167 18.5634 7.9167 18.3334C7.9167 18.1034 7.7292 17.9167 7.50004 17.9167Z" fill="white"/>
<path d="M15.8334 19.375C16.4086 19.375 16.875 18.9086 16.875 18.3334C16.875 17.7581 16.4086 17.2917 15.8334 17.2917C15.2581 17.2917 14.7917 17.7581 14.7917 18.3334C14.7917 18.9086 15.2581 19.375 15.8334 19.375Z" fill="white"/>
<path d="M15.8334 20C14.9142 20 14.1667 19.2525 14.1667 18.3334C14.1667 17.4142 14.9142 16.6667 15.8334 16.6667C16.7525 16.6667 17.5 17.4142 17.5 18.3334C17.5 19.2525 16.7525 20 15.8334 20ZM15.8334 17.9167C15.6042 17.9167 15.4167 18.1034 15.4167 18.3334C15.4167 18.5634 15.6042 18.75 15.8334 18.75C16.0625 18.75 16.25 18.5634 16.25 18.3334C16.25 18.1034 16.0625 17.9167 15.8334 17.9167Z" fill="white"/>
</g>
<defs>
<clipPath id="clip0">
<rect width="20" height="20" fill="white"/>
</clipPath>
</defs>
</svg>
