<svg width="16" height="16" viewBox="0 0 16 16" fill="none" xmlns="http://www.w3.org/2000/svg">
<g clip-path="url(#clip0)">
<path d="M7.99996 10.6666C7.86329 10.6666 7.73262 10.6106 7.63862 10.5119L4.13863 6.84525C3.8353 6.52792 4.06063 5.99992 4.49996 5.99992H6.33329V2.16659C6.33329 1.70725 6.70729 1.33325 7.16662 1.33325H8.83329C9.29262 1.33325 9.66662 1.70725 9.66662 2.16659V5.99992H11.4999C11.9393 5.99992 12.1646 6.52792 11.8613 6.84525L8.36129 10.5119C8.26729 10.6106 8.13662 10.6666 7.99996 10.6666Z" fill="white"/>
<path d="M14.8333 14.6667H1.16667C0.523333 14.6667 0 14.1433 0 13.5V13.1667C0 12.5233 0.523333 12 1.16667 12H14.8333C15.4767 12 16 12.5233 16 13.1667V13.5C16 14.1433 15.4767 14.6667 14.8333 14.6667Z" fill="white"/>
</g>
<defs>
<clipPath id="clip0">
<rect width="16" height="16" fill="white"/>
</clipPath>
</defs>
</svg>
